<svg width="440" height="480" viewBox="0 0 440 480" xmlns="http://www.w3.org/2000/svg" ><title>at</title><path d="M213 396q24 0 48-7 24-7 42-17l-20-32q-10 8-28 14-18 6-39 6-50-1-83-34-34-33-35-84 1-51 35-84 34-33 88-34 50 1 85 30 35 29 36 74 0 22-9 36-9 15-23 15-10 0-17-7-7-7-7-18l0-74-32 0 0 19q-8-11-21-17-13-6-27-6-27 1-45 20-17 19-18 48 1 30 19 50 17 19 45 20 15 0 29-7 13-7 22-19 9 12 22 19 14 8 30 8 29-1 48-26 19-25 20-63-2-59-46-98-45-39-111-40-70 2-114 45-44 43-45 108 2 67 45 110 43 43 106 45l0 0z m-33-152q0-15 10-25 10-10 25-10 16 0 26 10 11 10 11 25 0 16-11 26-11 11-27 11-15 0-24-11-10-10-10-26l0 0z" /></svg>
