<svg width="460" height="480" viewBox="0 0 460 480" xmlns="http://www.w3.org/2000/svg" ><title>audio-description</title><path d="M230 420q44-1 86-29 42-28 64-71-22-43-64-71-42-28-86-29-43 1-85 29-42 28-65 71 23 43 65 71 42 28 85 29l0 0z m-160-310l30 30q28-28 61-40 34-12 69-12 36 0 69 12 34 12 61 40l30-30q-34-34-75-49-41-15-85-15-43 0-84 15-42 15-76 49l0 0z m60 60l30 30q15-15 33-22 18-6 37-6 19 0 37 6 19 7 33 22l30-30q-21-21-47-31-26-9-53-9-27 0-53 9-26 10-47 31l0 0z m40 150q1-26 17-43 17-16 43-17 26 1 43 17 16 17 17 43-1 26-17 43-17 16-43 17-26-1-43-17-16-17-17-43l0 0z m30 0q0 13 9 21 8 9 21 9 13 0 21-9 9-8 9-21 0-13-9-21-8-9-21-9-13 0-21 9-9 8-9 21l0 0z" /></svg>
