<svg width="490" height="512" viewBox="0 0 490 512" xmlns="http://www.w3.org/2000/svg" ><title>audio-description</title><path d="M64 115Q101 78 148 59 195 40 245 40 295 40 342 59 389 78 426 115L392 149Q362 119 324 104 286 88 245 88 204 88 166 104 128 119 98 149L64 115ZM132 183Q155 160 185 148 214 136 245 136 276 136 306 148 335 160 358 183L324 217Q291 184 245 184 199 184 166 217L132 183ZM245 448Q192 448 151 417 109 385 85 340 109 295 151 264 192 232 245 232 298 232 340 264 381 295 405 340 381 385 340 417 298 448 245 448ZM245 408Q274 408 294 388 313 368 313 340 313 311 294 292 274 272 245 272 217 272 197 292 177 311 177 340 177 368 197 388 217 408 245 408ZM245 376Q230 376 220 366 209 355 209 340 209 325 220 315 230 304 245 304 260 304 271 315 281 325 281 340 281 355 271 366 260 376 245 376Z" /></svg>
