<svg width="512" height="512" viewBox="0 0 512 512" xmlns="http://www.w3.org/2000/svg" ><title>captions</title><path d="M96 448Q82 448 73 439 64 430 64 416L64 96Q64 82 73 73 82 64 96 64L416 64Q430 64 439 73 448 82 448 96L448 416Q448 430 439 439 430 448 416 448L96 448ZM181 368Q202 368 217 353 232 337 232 315L232 280 192 280 192 316Q192 328 180 328 168 328 168 316L168 196Q168 184 180 184 192 184 192 196L192 232 232 232 232 196Q232 175 217 160 202 144 179 144 158 145 143 160 128 175 128 197L128 316Q128 337 143 353 158 368 181 368ZM325 368Q346 368 361 353 376 337 376 315L376 280 336 280 336 316Q336 328 324 328 314 328 312 316L312 196Q312 184 324 184 336 184 336 196L336 232 376 232 376 196Q376 175 361 160 346 144 323 144 302 145 287 160 272 175 272 197L272 316Q272 337 287 353 302 368 325 368Z" /></svg>
