<svg width="480" height="480" viewBox="0 0 480 480" xmlns="http://www.w3.org/2000/svg" ><title>captions</title><path d="M60 400l360 0q8 0 14-6 6-6 6-14l0-280q0-8-6-14-6-6-14-6l-360 0q-8 0-14 6-6 6-6 14l0 280q0 8 6 14 6 6 14 6l0 0z m40-110l0-100q1-24 17-39 17-15 43-16 26 1 43 16 16 15 17 39l0 30-40 0 0-29q0-7-6-13-6-7-14-7-8 0-14 7-6 6-6 13l0 99q0 6 6 12 6 7 14 7 8 0 14-7 6-6 6-12l0-30 40 0 0 30q-1 24-17 39-17 15-43 16-26-1-43-16-16-15-17-39l0 0z m160 0l0-100q1-24 17-39 17-15 43-16 26 1 43 16 16 15 17 39l0 30-40 0 0-29q0-7-6-13-6-7-14-7-8 0-14 7-6 6-6 13l0 99q0 6 6 12 6 7 14 7 8 0 14-7 6-6 6-12l0-30 40 0 0 30q-1 24-17 39-17 15-43 16-26-1-43-16-16-15-17-39l0 0z" /></svg>
