<svg xmlns="http://www.w3.org/2000/svg" width="480" height="480" viewBox="0 0 480 480"><title>Drive</title><path d="M120 400l240 0q35-1 57-23 22-22 23-57l0-160q-1-35-23-57-22-22-57-23l-240 0q-35 1-57 23-22 22-23 57l0 160q1 35 23 57 22 22 57 23l0 0z m0-80l120 0 0-40-120 0 0 40z m240 40l-240 0q-17 0-28-12-12-11-12-28l0-90q8 5 19 7 10 3 21 3l240 0q11 0 22-3 10-2 18-7l0 90q0 17-12 28-11 12-28 12l0 0z m-40-40l40 0 0-40-40 0 0 40z m-240-160q0-17 12-28 11-12 28-12l240 0q17 0 28 12 12 11 12 28 0 17-12 28-11 12-28 12l-240 0q-17 0-28-12-12-11-12-28l0 0z" /></svg>
