<svg width="480" height="480" viewBox="0 0 480 480" xmlns="http://www.w3.org/2000/svg" ><title>group</title><path d="M60 310l0 30 160 0 0-30q-1-26-17-43-17-16-43-17l-40 0q-26 1-43 17-16 17-17 43l0 0z m10-160q1 30 20 50 20 19 50 20 30-1 50-20 19-20 20-50-1-30-20-50-20-19-50-20-30 1-50 20-19 20-20 50l0 0z m190 250l160 0 0-30q-1-26-17-43-17-16-43-17l-40 0q-26 1-43 17-16 17-17 43l0 30z m10-190q1 30 20 50 20 19 50 20 30-1 50-20 19-20 20-50-1-30-20-50-20-19-50-20-30 1-50 20-19 20-20 50l0 0z" /></svg>
