<svg width="512" height="512" viewBox="0 0 512 512" xmlns="http://www.w3.org/2000/svg" ><title>link</title><path d="M48 226Q48 191 72 168 95 144 130 144L165 144Q191 144 211 157 231 170 240 192L129 192Q115 192 106 202 96 211 96 225L96 287Q96 301 106 311 115 320 129 320L240 320Q231 342 211 355 191 368 165 368L130 368Q95 368 72 345 48 321 48 286L48 226ZM464 286Q464 321 441 345 417 368 382 368L347 368Q321 368 301 355 281 342 272 320L383 320Q397 320 407 311 416 301 416 287L416 225Q416 211 407 202 397 192 383 192L272 192Q281 170 301 157 321 144 347 144L382 144Q417 144 441 168 464 191 464 226L464 286ZM144 232L368 232 368 280 144 280 144 232Z" /></svg>
