<svg width="480" height="480" viewBox="0 0 480 480" xmlns="http://www.w3.org/2000/svg" ><title>link</title><path d="M340 290l40 0q26-1 43-17 16-17 17-43l0-60q-1-26-17-43-17-16-43-17l-140 0q-26 1-43 17-16 17-17 43l0 79q0 18 11 29 11 12 29 12l0-120q0-8 6-14 6-6 14-6l140 0q8 0 14 6 6 6 6 14l0 60q0 8-6 14-6 6-14 6l-40 0 0 40z m-300 20q1 26 17 43 17 16 43 17l140 0q26-1 43-17 16-17 17-43l0-79q0-18-11-29-11-12-29-12l0 120q0 8-6 14-6 6-14 6l-140 0q-8 0-14-6-6-6-6-14l0-60q0-8 6-14 6-6 14-6l40 0 0-40-40 0q-26 1-43 17-16 17-17 43l0 60z" /></svg>
