<svg width="640" height="512" viewBox="0 0 640 512" xmlns="http://www.w3.org/2000/svg" ><title>opts-h</title><path d="M128 320Q102 320 83 301 64 282 64 256 64 230 83 211 102 192 128 192 154 192 173 211 192 230 192 256 192 282 173 301 154 320 128 320ZM320 320Q294 320 275 301 256 282 256 256 256 230 275 211 294 192 320 192 346 192 365 211 384 230 384 256 384 282 365 301 346 320 320 320ZM512 320Q486 320 467 301 448 282 448 256 448 230 467 211 486 192 512 192 538 192 557 211 576 230 576 256 576 282 557 301 538 320 512 320Z" /></svg>
