<svg width="288" height="512" viewBox="0 0 288 512" xmlns="http://www.w3.org/2000/svg" ><title>opts-v</title><path d="M208 64Q208 90 189 109 170 128 144 128 118 128 99 109 80 90 80 64 80 38 99 19 118 0 144 0 170 0 189 19 208 38 208 64ZM208 256Q208 282 189 301 170 320 144 320 118 320 99 301 80 282 80 256 80 230 99 211 118 192 144 192 170 192 189 211 208 230 208 256ZM208 448Q208 474 189 493 170 512 144 512 118 512 99 493 80 474 80 448 80 422 99 403 118 384 144 384 170 384 189 403 208 422 208 448Z" /></svg>
