<svg width="448" height="512" viewBox="0 0 448 512" xmlns="http://www.w3.org/2000/svg" ><title>print</title><path d="M384 240Q398 240 407 250 416 259 416 273L416 351Q416 365 407 375 398 384 384 384L384 416Q384 430 375 439 366 448 352 448L96 448Q82 448 73 439 64 430 64 416L64 384Q50 384 41 375 32 365 32 351L32 273Q32 259 41 250 50 240 64 240L64 96Q64 81 73 73 81 64 96 64L233 64Q256 64 272 80L368 176Q384 192 384 215L384 240ZM112 112L112 240 336 240 336 192 240 192 240 112 112 112ZM360 328Q370 328 377 321 384 314 384 304 384 293 378 287 371 280 360 280 350 280 343 287 336 294 336 304 336 314 343 321 350 328 360 328ZM336 400L336 352 112 352 112 400 336 400Z" /></svg>
