<svg width="420" height="480" viewBox="0 0 420 480" xmlns="http://www.w3.org/2000/svg" ><title>print</title><path d="M100 420l220 0q8 0 14-6 6-6 6-14l0-40 20 0q13 0 21-9 9-8 9-21l0-80q0-13-9-21-8-9-21-9l-20 0 0-120q0-8-6-14-6-6-14-6l-220 0q-8 0-14 6-6 6-6 14l0 120-20 0q-13 0-21 9-9 8-9 21l0 80q0 13 9 21 8 9 21 9l20 0 0 40q0 8 6 14 6 6 14 6l0 0z m20-40l0-60 180 0 0 60-180 0z m0-140l0-120 180 0 0 120-180 0z m200 50q0-8 6-14 6-6 14-6 8 0 14 6 6 6 6 14 0 8-6 14-6 6-14 6-8 0-14-6-6-6-6-14l0 0z" /></svg>
