<svg width="576" height="512" viewBox="0 0 576 512" xmlns="http://www.w3.org/2000/svg" ><title>radio-off</title><path d="M288 480Q226 480 175 450 123 419 94 368 64 316 64 256 64 194 95 143 125 91 177 62 228 32 288 32 350 32 402 63 453 93 483 145 512 196 512 256 512 318 482 370 451 421 400 451 348 480 288 480ZM288 432Q336 432 377 409 417 385 441 345 464 304 464 256 464 206 440 166 416 126 376 103 336 80 288 80 239 80 199 104 158 128 135 169 112 209 112 256 112 303 136 344 159 384 200 408 240 432 288 432Z" /></svg>
