<svg width="448" height="512" viewBox="0 0 448 512" xmlns="http://www.w3.org/2000/svg" ><title>strikeout</title><path d="M424 280L322 280Q340 303 340 334 340 377 307 405 274 432 230 432 189 432 156 409 122 385 108 340L172 323Q178 347 194 361 209 374 231 374 250 374 263 363 276 352 276 336 276 317 261 305 246 292 217 280L24 280 24 232 138 232Q117 207 117 174 117 132 149 106 180 80 221 80 260 80 294 103 328 125 333 163L269 176Q262 158 252 149 241 140 223 140 206 140 194 150 181 159 181 176 181 193 193 203 205 212 223 220 240 228 249 232L424 232 424 280Z" /></svg>
