<svg width="512" height="512" viewBox="0 0 512 512" xmlns="http://www.w3.org/2000/svg" ><title>vol-mute</title><path d="M420 452L376 408Q354 423 329 434 303 445 280 448L280 400Q311 395 341 373L240 272 240 448 128 336 64 336 64 176 144 176 60 92 92 60 452 420 420 452ZM240 64L240 144 201 102 240 64ZM400 256Q400 203 365 162 330 120 280 112L280 64Q326 69 365 97 403 124 426 167 448 209 448 256 448 275 443 300 437 325 429 341L392 304Q400 278 400 256ZM284 164Q314 173 333 198 352 223 352 256L352 260 284 192 284 164Z" /></svg>
