<svg width="576" height="512" viewBox="0 0 576 512" xmlns="http://www.w3.org/2000/svg" ><title>web</title><path d="M288 32Q350 32 402 63 453 93 483 145 512 196 512 256 512 318 482 370 451 421 400 451 348 480 288 480 226 480 175 450 123 419 94 368 64 316 64 256 64 194 95 143 125 91 177 62 228 32 288 32ZM272 83Q235 95 218 151 245 158 272 160L272 83ZM304 160Q331 158 358 151 341 95 304 83L304 160ZM367 98Q380 118 387 141 403 133 411 128 392 111 367 98ZM189 141Q197 117 209 98 185 110 166 129L189 141ZM463 240Q460 193 432 153 412 166 396 172 403 205 404 240L463 240ZM180 172Q165 166 145 153 118 191 113 240L172 240Q173 205 180 172ZM272 192Q238 189 210 182 205 208 204 240L272 240 272 192ZM372 240Q371 208 366 182 338 189 304 192L304 240 372 240ZM113 272Q118 321 145 359 159 349 180 340 173 307 172 272L113 272ZM204 272Q205 304 210 330 238 323 272 320L272 272 204 272ZM304 320Q338 323 366 330 371 304 372 272L304 272 304 320ZM396 340Q411 346 431 359 458 321 463 272L404 272Q403 307 396 340ZM304 429Q341 417 358 361 331 354 304 352L304 429ZM272 352Q245 354 218 361 235 417 272 429L272 352ZM189 371Q176 376 166 383 185 401 208 413 195 391 189 371ZM387 371Q380 394 367 413 390 403 410 383L387 371Z" /></svg>
