<svg width="540" height="480" viewBox="0 0 540 480" xmlns="http://www.w3.org/2000/svg" ><title>web</title><path d="M270 410q-14-1-25-23-11-22-18-59 21 2 43 2 22 0 43-2-7 37-18 59-11 22-25 23l0 0z m-210-170q2 91 61 149 58 59 149 61 91-2 149-61 59-58 61-149-2-91-61-149-58-59-149-61-91 2-149 61-59 58-61 149l0 0z m40 0q1-14 23-25 22-11 59-18-2 21-2 43 0 22 2 43-37-7-59-18-22-11-23-25l0 0z m8 53q32 20 80 29 9 48 29 80-39-13-68-41-28-29-41-68l0 0z m0-106q13-39 41-68 29-28 68-41-20 32-29 80-48 9-80 29l0 0z m112 53q0-26 2-48 23-2 48-2 26 0 48 2 2 22 2 48 0 25-2 48-22 2-48 2-25 0-48-2-2-23-2-48l0 0z m7-88q7-37 18-59 11-22 25-23 14 1 25 23 11 22 18 59-21-2-43-2-22 0-43 2l0 0z m96 250q20-32 29-80 48-9 80-29-13 39-41 68-29 28-68 41l0 0z m0-324q39 13 68 41 28 29 41 68-32-20-80-29-9-48-29-80l0 0z m35 205q2-21 2-43 0-22-2-43 37 7 59 18 22 11 23 25-1 14-23 25-22 11-59 18l0 0z" /></svg>
