<svg xmlns="http://www.w3.org/2000/svg" width="540" height="480" viewBox="0 0 540 480"><title>Web</title><path d="M270 410q-14 0-25-22-11-22-18-60 10 1 21 1 11 1 22 1 11 0 22-1 11 0 21-1-7 38-18 60-11 22-25 22l0 0z m-170-170q0-14 22-25 22-11 60-18-1 10-1 21-1 11-1 22 0 11 1 22 0 11 1 21-38-7-60-18-22-11-22-25l0 0z m170 210q91-2 149-61 59-58 61-149-2-91-61-149-58-59-149-61-91 2-149 61-59 58-61 149 2 91 61 149 58 59 149 61l0 0z m-162-157q16 10 36 17 21 7 44 12 5 23 12 44 7 20 17 36-40-13-68-41-28-28-41-68l0 0z m0-106q13-40 41-68 28-28 68-41-10 16-17 36-7 21-12 44-23 5-44 12-20 7-36 17l0 0z m114 101q-1-11-1-23-1-12-1-25 0-13 1-25 0-12 1-23 11-1 23-1 12-1 25-1 13 0 25 1 12 0 23 1 1 11 1 23 1 12 1 25 0 13-1 25 0 12-1 23-11 1-23 1-12 1-25 1-13 0-25-1-12 0-23-1l0 0z m5-136q7-38 18-60 11-22 25-22 14 0 25 22 11 22 18 60-10-1-21-1-11-1-22-1-11 0-22 1-11 0-21 1l0 0z m96 250q10-16 17-36 7-21 12-44 23-5 44-12 20-7 36-17-13 40-41 68-28 28-68 41l0 0z m35-119q1-10 1-21 1-11 1-22 0-11-1-22 0-11-1-21 38 7 60 18 22 11 22 25 0 14-22 25-22 11-60 18l0 0z m-35-205q40 13 68 41 28 28 41 68-16-10-36-17-21-7-44-12-5-23-12-44-7-20-17-36l0 0z" /></svg>
