<svg width="500" height="480" viewBox="0 0 500 480" xmlns="http://www.w3.org/2000/svg" ><title>wifi</title><path d="M30 160l30 30q40-40 89-59 49-19 101-19 52 0 101 19 49 19 89 59l30-30q-46-46-103-68-57-22-117-22-60 0-116 22-57 22-104 68l0 0z m60 60l30 30q28-28 61-41 34-13 69-13 36 0 69 13 34 13 61 41l30-30q-34-34-75-50-41-16-85-16-43 0-84 16-42 16-76 50l0 0z m60 60l30 30q15-15 33-23 18-7 37-7 19 0 37 7 19 8 33 23l30-30q-21-21-47-32-26-10-53-10-27 0-53 10-26 11-47 32l0 0z m60 60l40 40 40-40q-8-8-18-13-11-5-22-5-11 0-21 5-11 5-19 13l0 0z" /></svg>
