<svg width="600" height="600"
xmlns="http://www.w3.org/2000/svg" >
  <title>Microns Preview</title>
  <rect width="600" height="600" fill="#fff"/>
  <svg x="24" y="24" width="24" height="24" viewBox="0 0 480 480"><path d="M210 390l30-30-90-90-10-6 0-4 280 0 0-40-280 0 0-4 10-6 90-90-30-30-150 150 150 150z"/></svg>
  <svg x="72" y="24" width="24" height="24" viewBox="0 0 480 480"><path d="M270 390l150-150-150-150-30 30 90 90 10 6 0 4-280 0 0 40 280 0 0 4-10 6-90 90 30 30z"/></svg>
  <svg x="120" y="24" width="24" height="24" viewBox="0 0 480 480"><path d="M90 210l30 30 90-90 6-10 4 0 0 280 40 0 0-280 4 0 6 10 90 90 30-30-150-150-150 150z"/></svg>
  <svg x="168" y="24" width="24" height="24" viewBox="0 0 480 480"><path d="M90 270l150 150 150-150-30-30-90 90-6 10-4 0 0-280-40 0 0 280-4 0-6-10-90-90-30 30z"/></svg>
  <svg x="219" y="24" width="18" height="24" viewBox="0 0 350 480"><path d="M60 250l180 180 30-30-150-150 150-160-30-30-180 190z"/></svg>
  <svg x="267" y="24" width="18" height="24" viewBox="0 0 350 480"><path d="M290 250l-180-190-30 30 150 160-150 150 30 30 180-180z"/></svg>
  <svg x="312" y="24" width="25" height="24" viewBox="0 0 490 480"><path d="M250 120l-190 180 30 30 160-150 150 150 30-30-180-180z"/></svg>
  <svg x="360" y="24" width="25" height="24" viewBox="0 0 490 480"><path d="M250 360l180-180-30-30-150 150-160-150-30 30 190 180z"/></svg>
  <svg x="408" y="24" width="24" height="24" viewBox="0 0 480 480"><path d="M220 420l40 0 0-190 70 70 30-30-120-120-120 120 30 30 70-70 0 190z m-160-320l360 0 0-40-360 0 0 40z"/></svg>
  <svg x="456" y="24" width="24" height="24" viewBox="0 0 480 480"><path d="M220 60l0 190-70-70-30 30 120 120 120-120-30-30-70 70 0-190-40 0z m-160 360l360 0 0-40-360 0 0 40z"/></svg>
  <svg x="506" y="24" width="20" height="24" viewBox="0 0 400 480"><path d="M145 310l0-70 35 0q51 1 85 35 34 34 35 85l40 0q-2-69-46-114-45-44-114-46l-35 0 0-70-100 90 100 90z"/></svg>
  <svg x="554" y="24" width="20" height="24" viewBox="0 0 400 480"><path d="M255 310l100-90-100-90 0 70-35 0q-69 2-114 46-44 45-46 114l40 0q1-51 35-85 34-34 85-35l35 0 0 70z"/></svg>
  <svg x="25" y="72" width="22" height="24" viewBox="0 0 440 480"><path d="M220 220l0-70q48 1 78 32 31 30 32 78-1 48-32 78-30 31-78 32-48-1-78-32-31-30-32-78l0-20-40 0 0 20q2 64 44 106 42 42 106 44 65-2 107-44 42-42 43-106-1-65-43-107-42-42-107-43l0-70-100 90 100 90z"/></svg>
  <svg x="73" y="72" width="22" height="24" viewBox="0 0 440 480"><path d="M220 220l100-90-100-90 0 70q-64 1-106 43-42 42-44 107 2 64 44 106 42 42 106 44 65-2 107-44 42-42 43-106l0-20-40 0 0 20q-1 48-32 78-30 31-78 32-48-1-78-32-31-30-32-78 1-48 32-78 30-31 78-32l0 70z"/></svg>
  <svg x="121" y="72" width="22" height="24" viewBox="0 0 440 480"><path d="M380 230l0-130-130 0 50 50-120 120 30 30 120-120 50 50z m-300 150q0 8 6 14 6 6 14 6l240 0q8 0 14-6 6-6 6-14l0-100-40 0 0 80-200 0 0-200 80 0 0-40-100 0q-8 0-14 6-6 6-6 14l0 240z"/></svg>
  <svg x="168" y="72" width="24" height="24" viewBox="0 0 480 480"><path d="M220 400l40 0 0-140 140 0 0-40-140 0 0-140-40 0 0 140-140 0 0 40 140 0 0 140z"/></svg>
  <svg x="216" y="72" width="24" height="24" viewBox="0 0 480 480"><path d="M80 260l320 0 0-40-320 0 0 40z"/></svg>
  <svg x="269" y="72" width="15" height="24" viewBox="0 0 300 480"><path d="M60 200l180 0-90-110-90 110z m0 80l90 110 90-110-180 0z"/></svg>
  <svg x="317" y="72" width="15" height="24" viewBox="0 0 300 480"><path d="M60 280l180 0-90-110-90 110z"/></svg>
  <svg x="365" y="72" width="15" height="24" viewBox="0 0 300 480"><path d="M150 290l90-110-180 0 90 110z"/></svg>
  <svg x="413" y="72" width="14" height="24" viewBox="0 0 289 480"><path d="M200 120l-120 120 120 120 30-30-90-90 90-90-30-30z"/></svg>
  <svg x="461" y="72" width="14" height="24" viewBox="0 0 270 480"><path d="M90 360l120-120-120-120-30 30 90 90-90 90 30 30z"/></svg>
  <svg x="507" y="72" width="18" height="24" viewBox="0 0 364 480"><path d="M300 290l-120-120-120 120 30 30 90-90 90 90 30-30z"/></svg>
  <svg x="555" y="72" width="18" height="24" viewBox="0 0 364 480"><path d="M60 190l120 120 120-120-30-30-90 90-90-90-30 30z"/></svg>
  <svg x="28" y="120" width="16" height="24" viewBox="0 0 320 480"><path d="M140 340l40 0 0-80 80 0 0-40-80 0 0-80-40 0 0 80-80 0 0 40 80 0 0 80z"/></svg>
  <svg x="76" y="120" width="16" height="24" viewBox="0 0 320 480"><path d="M60 260l200 0 0-40-200 0 0 40z"/></svg>
  <svg x="124" y="120" width="17" height="24" viewBox="0 0 330 480"><path d="M138 330l-88-90 30-30 57 57 103-117 30 30-132 150z"/></svg>
  <svg x="173" y="120" width="15" height="24" viewBox="0 0 300 480"><path d="M90 330l60-60 60 60 30-30-60-60 60-60-30-30-60 60-60-60-30 30 60 60-60 60 30 30z"/></svg>
  <svg x="221" y="120" width="15" height="24" viewBox="0 0 300 480"><path d="M150 330q38-1 64-26 25-26 26-64-1-38-26-64-26-25-64-26-38 1-64 26-25 26-26 64 1 38 26 64 26 25 64 26l0 0z"/></svg>
  <svg x="268" y="120" width="16" height="24" viewBox="0 0 320 480"><path d="M260 205l-20-35q-21 12-37 23-15 10-28 21 3-16 4-36 1-19 1-43l-40 0q0 24 1 43 1 20 4 36-13-11-28-21-16-11-37-23l-20 35q21 12 38 20 17 9 33 15-16 6-33 14-17 9-38 21l20 35q21-13 37-23 15-10 28-21-3 16-4 36-1 19-1 43l40 0q0-24-1-43-1-20-4-36 13 11 28 21 16 10 37 23l20-35q-21-12-38-21-17-8-33-14 16-6 33-15 17-8 38-20l0 0z"/></svg>
  <svg x="315" y="120" width="18" height="24" viewBox="0 0 360 480"><path d="M60 390l250-150-250-150 0 300z"/></svg>
  <svg x="363" y="120" width="18" height="24" viewBox="0 0 360 480"><path d="M220 390l80 0 0-300-80 0 0 300z m-160 0l80 0 0-300-80 0 0 300z"/></svg>
  <svg x="411" y="120" width="19" height="24" viewBox="0 0 380 480"><path d="M320 390l0-300-200 150 200 150z m-260 0l60 0 0-300-60 0 0 300z"/></svg>
  <svg x="459" y="120" width="19" height="24" viewBox="0 0 380 480"><path d="M60 390l200-150-200-150 0 300z m200 0l60 0 0-300-60 0 0 300z"/></svg>
  <svg x="504" y="120" width="24" height="24" viewBox="0 0 480 480"><path d="M60 400l360 0q8 0 14-6 6-6 6-14l0-280q0-8-6-14-6-6-14-6l-360 0q-8 0-14 6-6 6-6 14l0 280q0 8 6 14 6 6 14 6l0 0z m20-40l0-40 200 0 0 40-200 0z m0-80l0-40 80 0 0 40-80 0z m120 0l0-40 200 0 0 40-200 0z m120 80l0-40 80 0 0 40-80 0z"/></svg>
  <svg x="553" y="120" width="23" height="24" viewBox="0 0 460 480"><path d="M230 420q44-1 86-29 42-28 64-71-22-43-64-71-42-28-86-29-43 1-85 29-42 28-65 71 23 43 65 71 42 28 85 29l0 0z m-160-310l30 30q28-28 61-40 34-12 69-12 36 0 69 12 34 12 61 40l30-30q-34-34-75-49-41-15-85-15-43 0-84 15-42 15-76 49l0 0z m60 60l30 30q15-15 33-22 18-6 37-6 19 0 37 6 19 7 33 22l30-30q-21-21-47-31-26-9-53-9-27 0-53 9-26 10-47 31l0 0z m40 150q1-26 17-43 17-16 43-17 26 1 43 17 16 17 17 43-1 26-17 43-17 16-43 17-26-1-43-17-16-17-17-43l0 0z m30 0q0 13 9 21 8 9 21 9 13 0 21-9 9-8 9-21 0-13-9-21-8-9-21-9-13 0-21 9-9 8-9 21l0 0z"/></svg>
  <svg x="29" y="168" width="14" height="24" viewBox="0 0 285 480"><path d="M220 420l0-360-100 100-60 0 0 160 60 0 100 100z"/></svg>
  <svg x="74" y="168" width="20" height="24" viewBox="0 0 400 480"><path d="M260 144l0 192q31-9 50-36 19-27 20-60-1-33-20-60-19-27-50-36l0 0z m-200 176l60 0 100 100 0-360-100 100-60 0 0 160z"/></svg>
  <svg x="120" y="168" width="24" height="24" viewBox="0 0 480 480"><path d="M260 376l0 42q65-10 107-60 42-50 43-118-1-69-43-118-42-50-107-60l0 42q48 8 78 46 31 38 32 90-1 52-32 90-30 38-78 46l0 0z m-200-56l60 0 100 100 0-360-100 100-60 0 0 160z m200 16q31-9 50-36 19-27 20-60-1-33-20-60-19-27-50-36l0 192z"/></svg>
  <svg x="168" y="168" width="24" height="24" viewBox="0 0 480 480"><path d="M220 420l0-170 99 99q-13 11-28 18-14 7-31 9l0 42q25-3 47-14 22-10 40-27l43 43 30-30-330-330-30 30 65 65-5 5-60 0 0 160 60 0 100 100z m-40-320l40 40 0-80-40 40z m80 80l65 65 5-5q-1-34-20-61-20-27-50-35l0 36z m0-76q48 9 78 47 31 37 32 89 0 18-4 36l31 31q7-15 10-32 3-17 3-35-1-69-43-119-42-50-107-60l0 43z"/></svg>
  <svg x="216" y="168" width="24" height="24" viewBox="0 0 480 480"><path d="M60 400l360 0q8 0 14-6 6-6 6-14l0-280q0-8-6-14-6-6-14-6l-360 0q-8 0-14 6-6 6-6 14l0 280q0 8 6 14 6 6 14 6l0 0z m40-110l0-100q1-24 17-39 17-15 43-16 26 1 43 16 16 15 17 39l0 30-40 0 0-29q0-7-6-13-6-7-14-7-8 0-14 7-6 6-6 13l0 99q0 6 6 12 6 7 14 7 8 0 14-7 6-6 6-12l0-30 40 0 0 30q-1 24-17 39-17 15-43 16-26-1-43-16-16-15-17-39l0 0z m160 0l0-100q1-24 17-39 17-15 43-16 26 1 43 16 16 15 17 39l0 30-40 0 0-29q0-7-6-13-6-7-14-7-8 0-14 7-6 6-6 13l0 99q0 6 6 12 6 7 14 7 8 0 14-7 6-6 6-12l0-30 40 0 0 30q-1 24-17 39-17 15-43 16-26-1-43-16-16-15-17-39l0 0z"/></svg>
  <svg x="264" y="168" width="24" height="24" viewBox="0 0 480 480"><path d="M60 400l360 0q8 0 14-6 6-6 6-14l0-280q0-8-6-14-6-6-14-6l-360 0q-8 0-14 6-6 6-6 14l0 280q0 8 6 14 6 6 14 6l0 0z m40-60l0-200 40 0 0 80 40 0 0-80 40 0 0 200-40 0 0-80-40 0 0 80-40 0z m160 0l0-200 70 0q22 1 36 17 14 17 14 43l0 80q0 26-14 43-14 16-36 17l-70 0z m40-40l20 0q8 0 14-6 6-6 6-14l0-80q0-8-6-14-6-6-14-6l-20 0 0 120z"/></svg>
  <svg x="314" y="168" width="21" height="24" viewBox="0 0 420 480"><path d="M90 290l80-80 60 60 130-130-30-30-100 100-60-60-110 110 30 30z m-30 130l280 0 0-40-280 0 0 40z"/></svg>
  <svg x="362" y="168" width="20" height="24" viewBox="0 0 400 480"><path d="M60 420l280 0 0-40-280 0 0 40z m0-80l40 0 0-100-40 0 0 100z m80 0l40 0 0-220-40 0 0 220z m80 0l40 0 0-160-40 0 0 160z m80 0l40 0 0-280-40 0 0 280z"/></svg>
  <svg x="410" y="168" width="20" height="24" viewBox="0 0 400 480"><path d="M140 260l40 0 0-40-40 0 0 40z m-80 160l280 0 0-40-280 0 0 40z m0-140l40 0 0-40-40 0 0 40z m80-120l40 0 0-40-40 0 0 40z m80 60l40 0 0-40-40 0 0 40z m80 60l40 0 0-40-40 0 0 40z m0-180l40 0 0-40-40 0 0 40z"/></svg>
  <svg x="457" y="168" width="23" height="24" viewBox="0 0 458 480"><path d="M210 420q65-2 107-44 42-42 43-106l-150 0 0-150q-64 1-106 43-42 42-44 107 2 64 44 106 42 42 106 44l0 0z m40-190l140 0q-1-60-41-99-39-40-99-41l0 140z"/></svg>
  <svg x="504" y="168" width="24" height="24" viewBox="0 0 480 480"><path d="M80 400l320 0q8 0 14-6 6-6 6-14l0-240q0-8-6-14-6-6-14-6l-40 0 0-40-40 0 0 40-60 0 0-40-40 0 0 40-60 0 0-40-40 0 0 40-40 0q-8 0-14 6-6 6-6 14l0 240q0 8 6 14 6 6 14 6l0 0z m20-40l0-160 280 0 0 160-280 0z"/></svg>
  <svg x="553" y="168" width="23" height="24" viewBox="0 0 450 480"><path d="M220 405q71-2 117-48 46-46 48-117-2-71-48-117-46-46-117-48-71 2-117 48-46 46-48 117 2 71 48 117 46 46 117 48l0 0z m-20-145l0-130 40 0 0 90 90 0 0 40-130 0z"/></svg>
  <svg x="23" y="216" width="26" height="24" viewBox="0 0 516 480"><path d="M314 165l-54-136-54 136-142 11 109 91-35 143 122-80 122 80-35-143 109-91-142-11z"/></svg>
  <svg x="72" y="216" width="24" height="24" viewBox="0 0 480 480"><path d="M240 400q80-66 129-117 50-50 51-96-1-38-26-62-26-24-64-25-38 1-64 26-25 26-26 64-1-38-26-64-26-25-64-26-38 1-64 26-25 26-26 64 1 44 51 94 49 49 129 116l0 0z"/></svg>
  <svg x="121" y="216" width="23" height="24" viewBox="0 0 460 480"><path d="M140 310l260 0-80-110 80-110-260 0 0 220z m-80 110l40 0 0-330-40 0 0 330z"/></svg>
  <svg x="173" y="216" width="15" height="24" viewBox="0 0 300 480"><path d="M60 430l90-90 90 90 0-340-180 0 0 340z"/></svg>
  <svg x="216" y="216" width="24" height="24" viewBox="0 0 480 480"><path d="M150 430l90-90 160 0q8 0 14-6 6-6 6-14l0-210q0-8-6-14-6-6-14-6l-320 0q-8 0-14 6-6 6-6 14l0 210q0 8 6 14 6 6 14 6l70 0 0 90z"/></svg>
  <svg x="264" y="216" width="24" height="24" viewBox="0 0 480 480"><path d="M200 360l150-150-80-80-150 150 80 80z m-140 60l110-30-80-80-30 110z m240-320l80 80 50-50-80-80-50 50z"/></svg>
  <svg x="314" y="216" width="20" height="24" viewBox="0 0 400 480"><path d="M100 400l200 0q8 0 14-6 6-6 6-14l0-200 40 0 0-40-80 0 0-40q0-8-6-14-6-6-14-6l-120 0q-8 0-14 6-6 6-6 14l0 40-80 0 0 40 40 0 0 200q0 8 6 14 6 6 14 6l0 0z m20-40l0-160 60 0 0 160-60 0z m40-200l0-40 80 0 0 40-80 0z m60 200l0-160 60 0 0 160-60 0z"/></svg>
  <svg x="360" y="216" width="25" height="24" viewBox="0 0 500 480"><path d="M250 375q61-1 115-39 53-38 75-96-24-58-77-96-53-38-113-39-60 1-113 39-53 38-77 96 22 58 76 96 53 38 114 39l0 0z m-90-135q1-38 26-64 26-25 64-26 38 1 64 26 25 26 26 64-1 38-26 64-26 25-64 26-38-1-64-26-25-26-26-64l0 0z m40 0q1 21 15 35 14 14 35 15 22-1 36-15 14-14 14-35 0-22-14-36-14-14-36-14-21 0-35 14-14 14-15 36l0 0z"/></svg>
  <svg x="407" y="216" width="26" height="24" viewBox="0 0 510 480"><path d="M250 375q22 0 41-4 19-5 37-13l62 62 30-30-330-330-30 30 64 64q-22 19-39 42-18 23-25 44 22 58 76 96 53 38 114 39l0 0z m-90-135q0-11 2-21 3-10 8-19l31 31q-1 4-1 9 1 21 15 35 14 14 35 15 5 0 9-1l31 31q-9 5-19 7-10 3-21 3-38-1-64-26-25-26-26-64l0 0z m42-128l38 38 10 0q38 1 64 26 25 26 26 64l0 10 57 57q12-14 23-31 11-17 20-36-30-59-78-96-48-38-112-39-25 0-48 7l0 0z"/></svg>
  <svg x="459" y="216" width="18" height="24" viewBox="0 0 360 480"><path d="M90 400l180 0q13 0 21-9 9-8 9-21l0-150q0-13-9-21-8-9-21-9l0-30q-1-38-26-64-24-25-62-26-40 1-65 26-26 26-27 64l0 30q-13 0-21 9-9 8-9 21l0 150q0 13 9 21 8 9 21 9l0 0z m40-180l0-60q1-22 15-36 14-14 35-14 22 0 36 14 14 14 14 36l0 60-100 0z"/></svg>
  <svg x="504" y="216" width="24" height="24" viewBox="0 0 480 480"><path d="M340 290l40 0q26-1 43-17 16-17 17-43l0-60q-1-26-17-43-17-16-43-17l-140 0q-26 1-43 17-16 17-17 43l0 79q0 18 11 29 11 12 29 12l0-120q0-8 6-14 6-6 14-6l140 0q8 0 14 6 6 6 6 14l0 60q0 8-6 14-6 6-14 6l-40 0 0 40z m-300 20q1 26 17 43 17 16 43 17l140 0q26-1 43-17 16-17 17-43l0-79q0-18-11-29-11-12-29-12l0 120q0 8-6 14-6 6-14 6l-140 0q-8 0-14-6-6-6-6-14l0-60q0-8 6-14 6-6 14-6l40 0 0-40-40 0q-26 1-43 17-16 17-17 43l0 60z"/></svg>
  <svg x="555" y="216" width="19" height="24" viewBox="0 0 380 480"><path d="M80 220l0 110q1 43 29 71 28 28 71 29l20 0q43-1 71-29 28-28 29-71l0-180q-1-43-29-71-28-28-71-29l-30 0q-38 1-64 26-25 26-26 64l40 0q1-22 15-36 14-14 35-14l30 0q26 1 43 17 16 17 17 43l0 180q-1 26-17 43-17 16-43 17l-20 0q-26-1-43-17-16-17-17-43l0-110q0-8 6-14 6-6 14-6l20 0q8 0 14 6 6 6 6 14l0 80 40 0 0-80q-1-26-17-43-17-16-43-17l-20 0q-26 1-43 17-16 17-17 43l0 0z"/></svg>
  <svg x="25" y="264" width="22" height="24" viewBox="0 0 440 480"><path d="M100 420l240 0q8 0 14-6 6-6 6-14l0-226q0-6-3-13-2-6-7-11l-80-80q-5-5-11-7-7-3-13-3l-146 0q-8 0-14 6-6 6-6 14l0 320q0 8 6 14 6 6 14 6l0 0z m20-40l0-280 80 0 0 120 120 0 0 160-200 0z m120-200l0-84 84 84-84 0z"/></svg>
  <svg x="72" y="264" width="24" height="24" viewBox="0 0 480 480"><path d="M420 360l0-200q0-8-6-14-6-6-14-6l-150 0q-19-4-36-30-18-26-44-30l-90 0q-8 0-14 6-6 6-6 14l0 260q0 8 6 14 6 6 14 6l320 0q8 0 14-6 6-6 6-14l0 0z m-320-20l0-220 60 0q19 4 36 30 18 26 44 30l140 0 0 160-280 0z"/></svg>
  <svg x="120" y="264" width="24" height="24" viewBox="0 0 480 480"><path d="M60 400l360 0q8 0 14-6 6-6 6-14l0-280q0-8-6-14-6-6-14-6l-360 0q-8 0-14 6-6 6-6 14l0 280q0 8 6 14 6 6 14 6l0 0z m20-40l80-80 60 50 90-90 90 90 0 30-320 0z m40-170q0-17 12-28 11-12 28-12 17 0 28 12 12 11 12 28 0 17-12 28-11 12-28 12-17 0-28-12-12-11-12-28l0 0z"/></svg>
  <svg x="168" y="264" width="25" height="24" viewBox="0 0 500 480"><path d="M250 430q81-2 135-55 53-54 55-135-2-81-55-135-54-53-135-55-81 2-135 55-53 54-55 135 2 81 55 135 54 53 135 55l0 0z m-50-90l0-200 140 100-140 100z"/></svg>
  <svg x="217" y="264" width="23" height="24" viewBox="0 0 460 480"><path d="M120 400l60 0 0-140-80 0 0-20q1-56 38-92 36-37 92-38 56 1 92 38 37 36 38 92l0 20-80 0 0 140 60 0q26-1 43-17 16-17 17-43l0-100q-2-73-49-121-48-47-121-49-73 2-121 49-47 48-49 121l0 100q1 26 17 43 17 16 43 17l0 0z"/></svg>
  <svg x="265" y="264" width="22" height="24" viewBox="0 0 440 480"><path d="M160 220l0-100q1-22 15-36 14-14 35-14 22 0 36 14 14 14 14 36l0 100q0 21-14 35-14 14-36 15-21-1-35-15-14-14-15-35l0 0z m-80 1q1 50 31 85 31 35 79 43l0 31-50 0 0 40 140 0 0-40-50 0 0-31q48-8 79-44 30-35 31-85l0-30-40 0 0 30q-1 38-26 64-26 25-64 26-38-1-64-26-25-26-26-64l0-30-40 0 0 31z"/></svg>
  <svg x="312" y="264" width="24" height="24" viewBox="0 0 480 480"><path d="M60 300l0-140q0-17 12-28 11-12 28-12l200 0q17 0 28 12 12 11 12 28l0 100-30-30 90-90 20 0 0 180-20 0-60-60 0 40q0 17-12 28-11 12-28 12l-200 0q-17 0-28-12-12-11-12-28l0 0z"/></svg>
  <svg x="362" y="264" width="21" height="24" viewBox="0 0 420 480"><path d="M100 420l220 0q8 0 14-6 6-6 6-14l0-40 20 0q13 0 21-9 9-8 9-21l0-80q0-13-9-21-8-9-21-9l-20 0 0-120q0-8-6-14-6-6-14-6l-220 0q-8 0-14 6-6 6-6 14l0 120-20 0q-13 0-21 9-9 8-9 21l0 80q0 13 9 21 8 9 21 9l20 0 0 40q0 8 6 14 6 6 14 6l0 0z m20-40l0-60 180 0 0 60-180 0z m0-140l0-120 180 0 0 120-180 0z m200 50q0-8 6-14 6-6 14-6 8 0 14 6 6 6 6 14 0 8-6 14-6 6-14 6-8 0-14-6-6-6-6-14l0 0z"/></svg>
  <svg x="408" y="264" width="24" height="24" viewBox="0 0 480 480"><path d="M60 140l360 0 0-40-360 0 0 40z m0 240l360 0 0-40-360 0 0 40z m0-120l360 0 0-40-360 0 0 40z"/></svg>
  <svg x="458" y="264" width="21" height="24" viewBox="0 0 420 480"><path d="M310 395l40 0 0-320-40 0 0 320z m-240 0l40 0 0-320-40 0 0 320z m120 0l40 0 0-320-40 0 0 320z"/></svg>
  <svg x="502" y="264" width="29" height="24" viewBox="0 0 580 480"><path d="M450 290q22-1 36-15 14-14 14-35 0-22-14-36-14-14-36-14-21 0-35 14-14 14-15 36 1 21 15 35 14 14 35 15l0 0z m-370-50q1 21 15 35 14 14 35 15 22-1 36-15 14-14 14-35 0-22-14-36-14-14-36-14-21 0-35 14-14 14-15 36l0 0z m160 0q1 21 15 35 14 14 35 15 22-1 36-15 14-14 14-35 0-22-14-36-14-14-36-14-21 0-35 14-14 14-15 36l0 0z"/></svg>
  <svg x="557" y="264" width="15" height="24" viewBox="0 0 300 480"><path d="M200 80q0-22-14-36-14-14-36-14-21 0-35 14-14 14-15 36 1 21 15 35 14 14 35 15 22-1 36-15 14-14 14-35l0 0z m-100 320q1 21 15 35 14 14 35 15 22-1 36-15 14-14 14-35 0-22-14-36-14-14-36-14-21 0-35 14-14 14-15 36l0 0z m0-160q1 21 15 35 14 14 35 15 22-1 36-15 14-14 14-35 0-22-14-36-14-14-36-14-21 0-35 14-14 14-15 36l0 0z"/></svg>
  <svg x="24" y="312" width="24" height="24" viewBox="0 0 480 480"><path d="M80 420l320 0q8 0 14-6 6-6 6-14l0-175q0-7-3-14-3-7-8-11l-155-133q-3-3-7-5-4-2-7-2-3 0-7 2-4 2-7 5l-155 133q-5 4-8 11-3 7-3 14l0 175q0 8 6 14 6 6 14 6l0 0z m20-40l0-152 140-120 140 120 0 152-100 0 0-100-80 0 0 100-100 0z"/></svg>
  <svg x="73" y="312" width="21" height="24" viewBox="0 0 428 480"><path d="M90 390l120-120 130 120 30-30-130-120 130-120-30-30-130 120-120-120-30 30 120 120-120 120 30 30z"/></svg>
  <svg x="120" y="312" width="25" height="24" viewBox="0 0 500 480"><path d="M214 420l72 0 23-77 78 19 36-64-55-58 55-58-36-64-78 19-23-77-72 0-23 77-78-19-36 64 55 58-55 58 36 64 78-19 23 77z m-24-180q1-25 18-42 17-17 42-18 25 1 42 18 17 17 18 42-1 25-18 42-17 17-42 18-25-1-42-18-17-17-18-42l0 0z"/></svg>
  <svg x="168" y="312" width="24" height="24" viewBox="0 0 480 480"><path d="M210 360q26 0 48-8 23-8 42-22l90 90 30-30-90-90q14-19 22-42 8-22 8-48-1-65-43-107-42-42-107-43-64 1-106 43-42 42-44 107 2 64 44 106 42 42 106 44l0 0z m-110-150q1-48 32-78 30-31 78-32 48 1 78 32 31 30 32 78-1 48-32 78-30 31-78 32-48-1-78-32-31-30-32-78l0 0z"/></svg>
  <svg x="216" y="312" width="24" height="24" viewBox="0 0 480 480"><path d="M210 360q26 0 48-8 23-8 42-22l90 90 30-30-90-90q14-19 22-42 8-22 8-48-1-65-43-107-42-42-107-43-64 1-106 43-42 42-44 107 2 64 44 106 42 42 106 44l0 0z m-70-130l0-40 50 0 0-50 40 0 0 50 50 0 0 40-50 0 0 50-40 0 0-50-50 0z"/></svg>
  <svg x="264" y="312" width="24" height="24" viewBox="0 0 480 480"><path d="M210 360q26 0 48-8 23-8 42-22l90 90 30-30-90-90q14-19 22-42 8-22 8-48-1-65-43-107-42-42-107-43-64 1-106 43-42 42-44 107 2 64 44 106 42 42 106 44l0 0z m-70-130l0-40 140 0 0 40-140 0z"/></svg>
  <svg x="312" y="312" width="24" height="24" viewBox="0 0 480 480"><path d="M300 210l120 0 0-40-80 0 0-70-40 0 0 110z m-240 100l80 0 0 60 40 0 0-100-120 0 0 40z m0-100l120 0 0-110-40 0 0 70-80 0 0 40z m240 160l40 0 0-60 80 0 0-40-120 0 0 100z"/></svg>
  <svg x="360" y="312" width="24" height="24" viewBox="0 0 480 480"><path d="M380 210l40 0 0-110-120 0 0 40 80 0 0 70z m-320 160l120 0 0-40-80 0 0-60-40 0 0 100z m0-160l40 0 0-70 80 0 0-40-120 0 0 110z m240 160l120 0 0-100-40 0 0 60-80 0 0 40z"/></svg>
  <svg x="408" y="312" width="24" height="24" viewBox="0 0 480 480"><path d="M260 220l140 0 0-140-140 0 0 140z m-180 180l140 0 0-140-140 0 0 140z m0-180l140 0 0-140-140 0 0 140z m180 180l140 0 0-140-140 0 0 140z"/></svg>
  <svg x="456" y="312" width="24" height="24" viewBox="0 0 480 480"><path d="M320 160l80 0 0-80-80 0 0 80z m-240 240l80 0 0-80-80 0 0 80z m0-120l80 0 0-80-80 0 0 80z m0-120l80 0 0-80-80 0 0 80z m120 240l80 0 0-80-80 0 0 80z m0-120l80 0 0-80-80 0 0 80z m0-120l80 0 0-80-80 0 0 80z m120 240l80 0 0-80-80 0 0 80z m0-120l80 0 0-80-80 0 0 80z"/></svg>
  <svg x="504" y="312" width="24" height="24" viewBox="0 0 480 480"><path d="M180 140l240 0 0-60-240 0 0 60z m-120 260l60 0 0-60-60 0 0 60z m0-130l60 0 0-60-60 0 0 60z m0-130l60 0 0-60-60 0 0 60z m120 260l240 0 0-60-240 0 0 60z m0-130l240 0 0-60-240 0 0 60z"/></svg>
  <svg x="552" y="312" width="24" height="24" viewBox="0 0 480 480"><path d="M80 420l320 0q8 0 14-6 6-6 6-14l0-320q0-8-6-14-6-6-14-6l-320 0q-8 0-14 6-6 6-6 14l0 320q0 8 6 14 6 6 14 6l0 0z m20-40l0-280 280 0 0 280-280 0z"/></svg>
  <svg x="24" y="360" width="24" height="24" viewBox="0 0 480 480"><path d="M80 420l320 0q8 0 14-6 6-6 6-14l0-320q0-8-6-14-6-6-14-6l-320 0q-8 0-14 6-6 6-6 14l0 320q0 8 6 14 6 6 14 6l0 0z"/></svg>
  <svg x="72" y="360" width="24" height="24" viewBox="0 0 480 480"><path d="M220 340l0-80-80 0 0-40 80 0 0-80 40 0 0 80 80 0 0 40-80 0 0 80-40 0z m-160 60q0 8 6 14 6 6 14 6l320 0q8 0 14-6 6-6 6-14l0-320q0-8-6-14-6-6-14-6l-320 0q-8 0-14 6-6 6-6 14l0 320z"/></svg>
  <svg x="120" y="360" width="24" height="24" viewBox="0 0 480 480"><path d="M140 260l0-40 200 0 0 40-200 0z m-80 140q0 8 6 14 6 6 14 6l320 0q8 0 14-6 6-6 6-14l0-320q0-8-6-14-6-6-14-6l-320 0q-8 0-14 6-6 6-6 14l0 320z"/></svg>
  <svg x="168" y="360" width="24" height="24" viewBox="0 0 480 480"><path d="M218 330l-88-90 30-30 57 57 103-117 30 30-132 150z m-158 70q0 8 6 14 6 6 14 6l320 0q8 0 14-6 6-6 6-14l0-320q0-8-6-14-6-6-14-6l-320 0q-8 0-14 6-6 6-6 14l0 320z"/></svg>
  <svg x="216" y="360" width="24" height="24" viewBox="0 0 480 480"><path d="M180 330l-30-30 60-60-60-60 30-30 60 60 60-60 30 30-60 60 60 60-30 30-60-60-60 60z m-120 70q0 8 6 14 6 6 14 6l320 0q8 0 14-6 6-6 6-14l0-320q0-8-6-14-6-6-14-6l-320 0q-8 0-14 6-6 6-6 14l0 320z"/></svg>
  <svg x="264" y="360" width="24" height="24" viewBox="0 0 480 480"><path d="M80 420l320 0q8 0 14-6 6-6 6-14l0-320q0-8-6-14-6-6-14-6l-320 0q-8 0-14 6-6 6-6 14l0 320q0 8 6 14 6 6 14 6l0 0z m20-40l0-280 280 0 0 280-280 0z m40-120l200 0 0-40-200 0 0 40z"/></svg>
  <svg x="312" y="360" width="24" height="24" viewBox="0 0 480 480"><path d="M80 420l320 0q8 0 14-6 6-6 6-14l0-320q0-8-6-14-6-6-14-6l-320 0q-8 0-14 6-6 6-6 14l0 320q0 8 6 14 6 6 14 6l0 0z m20-40l0-280 280 0 0 280-280 0z m40-120l80 0 0 80 40 0 0-80 80 0 0-40-80 0 0-80-40 0 0 80-80 0 0 40z"/></svg>
  <svg x="360" y="360" width="24" height="24" viewBox="0 0 480 480"><path d="M80 420l320 0q8 0 14-6 6-6 6-14l0-320q0-8-6-14-6-6-14-6l-320 0q-8 0-14 6-6 6-6 14l0 320q0 8 6 14 6 6 14 6l0 0z m20-40l0-280 280 0 0 280-280 0z m30-140l30-30 57 57 103-117 30 30-132 150-88-90z"/></svg>
  <svg x="408" y="360" width="24" height="24" viewBox="0 0 480 480"><path d="M80 420l320 0q8 0 14-6 6-6 6-14l0-320q0-8-6-14-6-6-14-6l-320 0q-8 0-14 6-6 6-6 14l0 320q0 8 6 14 6 6 14 6l0 0z m20-40l0-280 280 0 0 280-280 0z m50-80l30 30 60-60 60 60 30-30-60-60 60-60-30-30-60 60-60-60-30 30 60 60-60 60z"/></svg>
  <svg x="456" y="360" width="25" height="24" viewBox="0 0 500 480"><path d="M250 430q81-2 135-55 53-54 55-135-2-81-55-135-54-53-135-55-81 2-135 55-53 54-55 135 2 81 55 135 54 53 135 55l0 0z m-150-190q2-65 44-107 42-42 106-43 65 1 107 43 42 42 43 107-1 64-43 106-42 42-107 44-64-2-106-44-42-42-44-106l0 0z"/></svg>
  <svg x="504" y="360" width="25" height="24" viewBox="0 0 500 480"><path d="M250 430q81-2 135-55 53-54 55-135-2-81-55-135-54-53-135-55-81 2-135 55-53 54-55 135 2 81 55 135 54 53 135 55l0 0z m-150-190q2-65 44-107 42-42 106-43 65 1 107 43 42 42 43 107-1 64-43 106-42 42-107 44-64-2-106-44-42-42-44-106l0 0z m60 0q1 38 26 64 26 25 64 26 38-1 64-26 25-26 26-64-1-38-26-64-26-25-64-26-38 1-64 26-25 26-26 64l0 0z"/></svg>
  <svg x="552" y="360" width="25" height="24" viewBox="0 0 500 480"><path d="M250 430q81-2 135-55 53-54 55-135-2-81-55-135-54-53-135-55-81 2-135 55-53 54-55 135 2 81 55 135 54 53 135 55l0 0z"/></svg>
  <svg x="24" y="408" width="25" height="24" viewBox="0 0 500 480"><path d="M250 430q81-2 135-55 53-54 55-135-2-81-55-135-54-53-135-55-81 2-135 55-53 54-55 135 2 81 55 135 54 53 135 55l0 0z m-30-80l0-120 60 0 0 120-60 0z m0-160l0-60 60 0 0 60-60 0z"/></svg>
  <svg x="72" y="408" width="25" height="24" viewBox="0 0 500 480"><path d="M250 50q-81 2-135 55-53 54-55 135 2 81 55 135 54 53 135 55 81-2 135-55 53-54 55-135-2-81-55-135-54-53-135-55l0 0z m-30 300l0-60 60 0 0 60-60 0z m0-100l0-120 60 0 0 120-60 0z"/></svg>
  <svg x="120" y="408" width="25" height="24" viewBox="0 0 500 480"><path d="M250 430q81-2 135-55 53-54 55-135-2-81-55-135-54-53-135-55-81 2-135 55-53 54-55 135 2 81 55 135 54 53 135 55l0 0z m-110-190l30-30 57 57 103-117 30 30-132 150-88-90z"/></svg>
  <svg x="168" y="408" width="25" height="24" viewBox="0 0 500 480"><path d="M250 430q81-2 135-55 53-54 55-135-2-81-55-135-54-53-135-55-81 2-135 55-53 54-55 135 2 81 55 135 54 53 135 55l0 0z m-90-130l60-60-60-60 30-30 60 60 60-60 30 30-60 60 60 60-30 30-60-60-60 60-30-30z"/></svg>
  <svg x="216" y="408" width="25" height="24" viewBox="0 0 500 480"><path d="M250 430q81-2 135-55 53-54 55-135-2-81-55-135-54-53-135-55-81 2-135 55-53 54-55 135 2 81 55 135 54 53 135 55l0 0z m-70-228q0-33 19-53 18-19 51-19 33 0 51 15 17 15 17 41-3 34-24 49-21 15-24 35l-40 0q3-41 24-53 21-13 24-31 0-9-7-15-6-5-17-5-17 0-25 10-9 9-9 26l-40 0z m50 138l0-40 40 0 0 40-40 0z"/></svg>
  <svg x="266" y="408" width="21" height="24" viewBox="0 0 420 480"><path d="M65 380l45 0 35-80 130 0 35 80 45 0-133-290-24 0-133 290z m98-120l47-107 47 107-94 0z"/></svg>
  <svg x="315" y="408" width="18" height="24" viewBox="0 0 360 480"><path d="M80 380l125 0q38-1 61-22 23-22 24-58 0-26-14-43-14-18-36-21l0-4q15-5 25-22 10-17 10-36-1-35-27-55-27-19-70-19l-98 0 0 280z m40-40l0-80 89 0q18 0 30 11 11 11 11 29 0 18-11 29-12 11-30 11l-89 0z m0-120l0-80 72 0q19 0 31 11 12 11 12 29 0 18-12 29-12 11-31 11l-72 0z"/></svg>
  <svg x="363" y="408" width="19" height="24" viewBox="0 0 380 480"><path d="M100 140l90 0-54 200-76 0 0 40 200 0 0-40-80 0 54-200 86 0 0-40-220 0 0 40z"/></svg>
  <svg x="411" y="408" width="19" height="24" viewBox="0 0 380 480"><path d="M190 320q53-1 81-34 29-33 29-86l0-120-40 0 0 120q0 36-17 58-18 21-53 22-35-1-53-22-17-22-17-58l0-120-40 0 0 120q0 53 29 86 28 33 81 34l0 0z m-130 80l260 0 0-40-260 0 0 40z"/></svg>
  <svg x="457" y="408" width="22" height="24" viewBox="0 0 440 480"><path d="M220 390q46-1 73-26 26-24 27-60 0-14-4-25-4-11-12-19l76 0 0-40-158 0q-19-10-36-22-18-11-19-31 0-17 14-27 13-10 35-10 25 0 41 12 15 12 16 33l40 0q-1-39-27-62-26-22-69-23-40 0-65 21-24 21-25 56 0 18 7 31 7 12 17 22l-91 0 0 40 180 0q18 7 29 18 11 10 11 25 0 18-16 32-16 14-43 15-26 0-42-14-16-14-16-36l-43 0q1 40 28 64 28 25 72 26l0 0z"/></svg>
  <svg x="506" y="408" width="21" height="24" viewBox="0 0 420 480"><path d="M240 380l40 0 0-240 100 0 0-40-240 0 0 40 100 0 0 240z m-200-140l60 0 0 140 40 0 0-140 60 0 0-40-160 0 0 40z"/></svg>
  <svg x="553" y="408" width="22" height="24" viewBox="0 0 440 480"><path d="M200 380l40 0 0-70 110 110 30-30-330-330-30 30 180 180 0 110z m-50-280l90 90 0-50 100 0 0-40-190 0z"/></svg>
  <svg x="25" y="456" width="23" height="24" viewBox="0 0 460 480"><path d="M60 140l340 0 0-40-340 0 0 40z m0 240l220 0 0-40-220 0 0 40z m0-80l340 0 0-40-340 0 0 40z m0-80l220 0 0-40-220 0 0 40z"/></svg>
  <svg x="73" y="456" width="23" height="24" viewBox="0 0 460 480"><path d="M60 140l340 0 0-40-340 0 0 40z m0 160l340 0 0-40-340 0 0 40z m60 80l220 0 0-40-220 0 0 40z m0-160l220 0 0-40-220 0 0 40z"/></svg>
  <svg x="121" y="456" width="23" height="24" viewBox="0 0 460 480"><path d="M400 140l0-40-340 0 0 40 340 0z m-340 160l340 0 0-40-340 0 0 40z m120 80l220 0 0-40-220 0 0 40z m0-160l220 0 0-40-220 0 0 40z"/></svg>
  <svg x="168" y="456" width="24" height="24" viewBox="0 0 480 480"><path d="M60 140l360 0 0-40-360 0 0 40z m0 240l360 0 0-40-360 0 0 40z m0-80l80-60-80-60 0 120z m120 0l240 0 0-40-240 0 0 40z m0-80l240 0 0-40-240 0 0 40z"/></svg>
  <svg x="216" y="456" width="24" height="24" viewBox="0 0 480 480"><path d="M60 140l360 0 0-40-360 0 0 40z m0 240l360 0 0-40-360 0 0 40z m0-140l80 60 0-120-80 60z m120 60l240 0 0-40-240 0 0 40z m0-80l240 0 0-40-240 0 0 40z"/></svg>
  <svg x="264" y="456" width="24" height="24" viewBox="0 0 480 480"><path d="M140 140l280 0 0-40-280 0 0 40z m-80 240l40 0 0-40-40 0 0 40z m0-80l40 0 0-40-40 0 0 40z m0-80l40 0 0-40-40 0 0 40z m0-80l40 0 0-40-40 0 0 40z m80 240l280 0 0-40-280 0 0 40z m0-80l280 0 0-40-280 0 0 40z m0-80l280 0 0-40-280 0 0 40z"/></svg>
  <svg x="313" y="456" width="23" height="24" viewBox="0 0 460 480"><path d="M60 140l340 0 0-40-340 0 0 40z m0 240l220 0 0-40-220 0 0 40z m0-80l340 0 0-40-340 0 0 40z m0-80l340 0 0-40-340 0 0 40z"/></svg>
  <svg x="361" y="456" width="23" height="24" viewBox="0 0 460 480"><path d="M60 140l340 0 0-40-340 0 0 40z m0 160l340 0 0-40-340 0 0 40z m0-80l340 0 0-40-340 0 0 40z m60 160l220 0 0-40-220 0 0 40z"/></svg>
  <svg x="409" y="456" width="23" height="24" viewBox="0 0 460 480"><path d="M400 140l0-40-340 0 0 40 340 0z m-340 160l340 0 0-40-340 0 0 40z m0-80l340 0 0-40-340 0 0 40z m120 160l220 0 0-40-220 0 0 40z"/></svg>
  <svg x="457" y="456" width="23" height="24" viewBox="0 0 460 480"><path d="M60 340l0 40 340 0 0-40-340 0z m0-40l260 0 0-40-260 0 0 40z m0-80l180 0 0-40-180 0 0 40z m0-80l100 0 0-40-100 0 0 40z"/></svg>
  <svg x="505" y="456" width="23" height="24" viewBox="0 0 460 480"><path d="M60 140l340 0 0-40-340 0 0 40z m0 240l100 0 0-40-100 0 0 40z m0-80l180 0 0-40-180 0 0 40z m0-80l260 0 0-40-260 0 0 40z"/></svg>
  <svg x="552" y="456" width="24" height="24" viewBox="0 0 470 480"><path d="M240 380l-80-200-40 0-80 200 43 0 15-40 83 0 15 40 44 0z m-126-80l26-69 26 69-52 0z m96-140l120 0q0 21-6 41-7 19-19 36-15-17-15-37l-40 0q0 18 7 34 7 17 21 31-15 10-32 15l-8 2 15 37 8-2q14-3 26-10 13-7 24-16 23 14 54 21 30 8 65 8l0-40q-27 0-50-5-24-5-42-14 15-22 24-48 8-25 8-53l60 0 0-40-80 0 0-40-40 0 0 40-100 0 0 40z"/></svg>
  <svg x="24" y="504" width="24" height="24" viewBox="0 0 480 480"><path d="M240 270q38-1 64-26 25-26 26-64-1-38-26-64-26-25-64-26-38 1-64 26-25 26-26 64 1 38 26 64 26 25 64 26l0 0z m-120 120l240 0 0-30q-1-26-17-43-17-16-43-17l-120 0q-26 1-43 17-16 17-17 43l0 30z"/></svg>
  <svg x="72" y="504" width="24" height="24" viewBox="0 0 480 480"><path d="M60 310l0 30 160 0 0-30q-1-26-17-43-17-16-43-17l-40 0q-26 1-43 17-16 17-17 43l0 0z m10-160q1 30 20 50 20 19 50 20 30-1 50-20 19-20 20-50-1-30-20-50-20-19-50-20-30 1-50 20-19 20-20 50l0 0z m190 250l160 0 0-30q-1-26-17-43-17-16-43-17l-40 0q-26 1-43 17-16 17-17 43l0 30z m10-190q1 30 20 50 20 19 50 20 30-1 50-20 19-20 20-50-1-30-20-50-20-19-50-20-30 1-50 20-19 20-20 50l0 0z"/></svg>
  <svg x="119" y="504" width="27" height="24" viewBox="0 0 540 480"><path d="M270 410q-14-1-25-23-11-22-18-59 21 2 43 2 22 0 43-2-7 37-18 59-11 22-25 23l0 0z m-210-170q2 91 61 149 58 59 149 61 91-2 149-61 59-58 61-149-2-91-61-149-58-59-149-61-91 2-149 61-59 58-61 149l0 0z m40 0q1-14 23-25 22-11 59-18-2 21-2 43 0 22 2 43-37-7-59-18-22-11-23-25l0 0z m8 53q32 20 80 29 9 48 29 80-39-13-68-41-28-29-41-68l0 0z m0-106q13-39 41-68 29-28 68-41-20 32-29 80-48 9-80 29l0 0z m112 53q0-26 2-48 23-2 48-2 26 0 48 2 2 22 2 48 0 25-2 48-22 2-48 2-25 0-48-2-2-23-2-48l0 0z m7-88q7-37 18-59 11-22 25-23 14 1 25 23 11 22 18 59-21-2-43-2-22 0-43 2l0 0z m96 250q20-32 29-80 48-9 80-29-13 39-41 68-29 28-68 41l0 0z m0-324q39 13 68 41 28 29 41 68-32-20-80-29-9-48-29-80l0 0z m35 205q2-21 2-43 0-22-2-43 37 7 59 18 22 11 23 25-1 14-23 25-22 11-59 18l0 0z"/></svg>
  <svg x="167" y="504" width="25" height="24" viewBox="0 0 502 480"><path d="M160 370l210 0q31-1 51-21 19-20 20-51-1-26-15-44-14-18-36-24 5-7 7-20 3-13 3-25-1-47-35-77-34-31-84-32-48 1-79 30-31 29-32 74l-10 0q-41 1-69 28-27 26-28 67 1 41 28 67 28 27 69 28l0 0z"/></svg>
  <svg x="216" y="504" width="25" height="24" viewBox="0 0 500 480"><path d="M30 160l30 30q40-40 89-59 49-19 101-19 52 0 101 19 49 19 89 59l30-30q-46-46-103-68-57-22-117-22-60 0-116 22-57 22-104 68l0 0z m60 60l30 30q28-28 61-41 34-13 69-13 36 0 69 13 34 13 61 41l30-30q-34-34-75-50-41-16-85-16-43 0-84 16-42 16-76 50l0 0z m60 60l30 30q15-15 33-23 18-7 37-7 19 0 37 7 19 8 33 23l30-30q-21-21-47-32-26-10-53-10-27 0-53 10-26 11-47 32l0 0z m60 60l40 40 40-40q-8-8-18-13-11-5-22-5-11 0-21 5-11 5-19 13l0 0z"/></svg>
  <svg x="264" y="504" width="24" height="24" viewBox="0 0 480 480"><path d="M360 420l60 0q-4-155-104-256-101-100-256-104l0 60q129 2 213 86 84 84 87 214l0 0z m-300-45q0 19 13 32 13 13 32 13 19 0 32-13 13-13 13-32 0-19-13-32-13-13-32-13-19 0-32 13-13 13-13 32l0 0z m0-125q73 2 121 49 47 48 49 121l60 0q-2-99-67-163-64-65-163-67l0 60z"/></svg>
  <svg x="312" y="504" width="24" height="24" viewBox="0 0 480 480"><path d="M300 120l0 3-134 78q-8-10-20-15-12-6-26-6-26 1-43 17-16 17-17 43 1 26 17 43 17 16 43 17 14 0 26-6 12-5 20-15l134 78 0 3q1 26 17 43 17 16 43 17 26-1 43-17 16-17 17-43-1-26-17-43-17-16-43-17-14 0-25 5-11 5-19 14l-136-79 136-79q8 9 19 14 11 5 25 5 26-1 43-17 16-17 17-43-1-26-17-43-17-16-43-17-26 1-43 17-16 17-17 43l0 0z"/></svg>
  <svg x="360" y="504" width="25" height="24" viewBox="0 0 500 480"><path d="M80 380l340 0q8 0 14-6 6-6 6-14l0-240q0-8-6-14-6-6-14-6l-340 0q-8 0-14 6-6 6-6 14l0 240q0 8 6 14 6 6 14 6l0 0z m20-40l0-170 150 122 150-122 0 170-300 0z m24-200l252 0-126 102-126-102z"/></svg>
  <svg x="408" y="504" width="24" height="24" viewBox="0 0 480 480"><path d="M300 370l140-130-140-140-30 30 110 110-110 100 30 30z m-250-130l130 130 30-30-100-100 100-110-30-30-130 140z"/></svg>
  <svg x="456" y="504" width="24" height="24" viewBox="0 0 480 480"><path d="M80 380l320 0q8 0 14-6 6-6 6-14l0-240q0-8-6-14-6-6-14-6l-320 0q-8 0-14 6-6 6-6 14l0 240q0 8 6 14 6 6 14 6l0 0z m20-40l0-120 280 0 0 120-280 0z m40-40l120 0 0-40-120 0 0 40z m160 0l40 0 0-40-40 0 0 40z"/></svg>
  <svg x="504" y="504" width="24" height="24" viewBox="0 0 480 480"><path d="M80 420l320 0q8 0 14-6 6-6 6-14l0-320q0-8-6-14-6-6-14-6l-320 0q-8 0-14 6-6 6-6 14l0 320q0 8 6 14 6 6 14 6l0 0z m20-40l0-120 280 0 0 120-280 0z m0-160l0-120 280 0 0 120-280 0z m40 120l120 0 0-40-120 0 0 40z m0-160l120 0 0-40-120 0 0 40z m160 160l40 0 0-40-40 0 0 40z m0-160l40 0 0-40-40 0 0 40z"/></svg>
  <svg x="553" y="504" width="22" height="24" viewBox="0 0 440 480"><path d="M160 167l0-45q-40 18-65 54-24 36-25 84 2 64 44 106 42 42 106 44 65-2 107-44 42-42 43-106-1-48-25-84-25-36-65-54l0 45q23 15 36 39 14 24 14 54-1 48-32 78-30 31-78 32-48-1-78-32-31-30-32-78 0-30 14-54 13-24 36-39l0 0z m40 53l40 0 0-140-40 0 0 140z"/></svg>
  <svg x="24" y="552" width="24" height="24" viewBox="0 0 480 480"><path d="M80 340l60 0 0 60q0 8 6 14 6 6 14 6l240 0q8 0 14-6 6-6 6-14l0-240q0-8-6-14-6-6-14-6l-60 0 0-60q0-8-6-14-6-6-14-6l-240 0q-8 0-14 6-6 6-6 14l0 240q0 8 6 14 6 6 14 6l0 0z m20-40l0-200 200 0 0 200-200 0z m80 80l0-40 140 0q8 0 14-6 6-6 6-14l0-140 40 0 0 200-200 0z"/></svg>
  <svg x="72" y="552" width="24" height="24" viewBox="0 0 480 480"><path d="M80 340l60 0 0 60q0 8 6 14 6 6 14 6l240 0q8 0 14-6 6-6 6-14l0-240q0-8-6-14-6-6-14-6l-60 0 0-60q0-8-6-14-6-6-14-6l-240 0q-8 0-14 6-6 6-6 14l0 240q0 8 6 14 6 6 14 6l0 0z m20-40l0-200 200 0 0 40-140 0q-8 0-14 6-6 6-6 14l0 140-40 0z m80 80l0-40 140 0q8 0 14-6 6-6 6-14l0-140 40 0 0 200-200 0z m0-80l0-120 120 0 0 120-120 0z"/></svg>
  <svg x="120" y="552" width="24" height="24" viewBox="0 0 480 480"><path d="M80 340l60 0 0 60q0 8 6 14 6 6 14 6l240 0q8 0 14-6 6-6 6-14l0-240q0-8-6-14-6-6-14-6l-60 0 0-60q0-8-6-14-6-6-14-6l-240 0q-8 0-14 6-6 6-6 14l0 240q0 8 6 14 6 6 14 6l0 0z m20-40l0-200 200 0 0 40-140 0q-8 0-14 6-6 6-6 14l0 140-40 0z m80 80l0-40 140 0q8 0 14-6 6-6 6-14l0-140 40 0 0 200-200 0z"/></svg>
  <svg x="168" y="552" width="24" height="24" viewBox="0 0 480 480"><path d="M80 380l320 0q8 0 14-6 6-6 6-14l0-240q0-8-6-14-6-6-14-6l-320 0q-8 0-14 6-6 6-6 14l0 240q0 8 6 14 6 6 14 6l0 0z m20-40l0-200 280 0 0 200-280 0z"/></svg>
  <svg x="216" y="552" width="24" height="24" viewBox="0 0 480 480"><path d="M100 80l0 320q0 8 6 14 6 6 14 6l240 0q8 0 14-6 6-6 6-14l0-320q0-8-6-14-6-6-14-6l-240 0q-8 0-14 6-6 6-6 14l0 0z m40 300l0-280 200 0 0 280-200 0z"/></svg>
  <svg x="264" y="552" width="24" height="24" viewBox="0 0 480 480"><path d="M141 180l0 120 100 0 0-120-100 0z m-81 180q0 8 6 14 6 6 14 6l320 0q8 0 14-6 6-6 6-14l0-240q0-8-6-14-6-6-14-6l-320 0q-8 0-14 6-6 6-6 14l0 240z m40-20l0-200 280 0 0 200-280 0z"/></svg>
  <svg x="312" y="552" width="24" height="24" viewBox="0 0 480 480"><path d="M339 180l-100 0 0 120 100 0 0-120z m-279 180q0 8 6 14 6 6 14 6l320 0q8 0 14-6 6-6 6-14l0-240q0-8-6-14-6-6-14-6l-320 0q-8 0-14 6-6 6-6 14l0 240z m40-20l0-200 280 0 0 200-280 0z"/></svg>
  <svg x="363" y="552" width="19" height="24" viewBox="0 0 380 480"><path d="M60 380l260 0 0-40-260 0 0 40z"/></svg>
  <svg x="411" y="552" width="19" height="24" viewBox="0 0 380 480"><path d="M60 140l260 0 0-40-260 0 0 40z"/></svg>
  <svg x="456" y="552" width="24" height="24" viewBox="0 0 480 480"><path d="M360 250l0-130-130 0 50 50-110 110-50-50 0 130 130 0-50-50 110-110 50 50z"/></svg>
  <svg x="504" y="552" width="24" height="24" viewBox="0 0 480 480"><path d="M380 220l0-120-120 0 45 45-65 65-65-65 45-45-120 0 0 120 45-45 65 65-65 65-45-45 0 120 120 0-45-45 65-65 65 65-45 45 120 0 0-120-45 45-65-65 65-65 45 45z"/></svg>
  <svg x="553" y="552" width="23" height="24" viewBox="0 0 460 480"><path d="M280 180l-45 45-125-125-30 30 125 125-45 45 120 0 0-120z m-200 200q0 8 6 14 6 6 14 6l260 0q8 0 14-6 6-6 6-14l0-260q0-8-6-14-6-6-14-6l-140 0 0 40 120 0 0 220-220 0 0-120-40 0 0 140z"/></svg>
</svg>
